HIERARCHY
ROOT Hips
{
	OFFSET 0.000000 0.000000 0.000000
	CHANNELS 6 Xposition Yposition Zposition Xrotation Yrotation Zrotation
	JOINT LeftUpLeg_virtual
	{
		OFFSET 0.000000 0.000000 0.000000
		CHANNELS 3 Xrotation Yrotation Zrotation
		JOINT LeftUpLeg
		{
			OFFSET 11.394100 -6.187798 -0.413800
			CHANNELS 3 Xrotation Yrotation Zrotation
			JOINT LeftLeg
			{
				OFFSET 0.430247 -32.302673 3.732800
				CHANNELS 3 Xrotation Yrotation Zrotation
				JOINT LeftFoot
				{
					OFFSET -0.430247 -48.264931 -6.423300
					CHANNELS 3 Xrotation Yrotation Zrotation
					JOINT LeftToeBase
					{
						OFFSET 4.230900 -16.068199 23.438400
						CHANNELS 3 Xrotation Yrotation Zrotation
						JOINT LeftToe_End
						{
							OFFSET 4.510700 0.695400 19.974600
							CHANNELS 3 Xrotation Yrotation Zrotation
							End Site
							{
								OFFSET 0 0 0
							}
						}
					}
				}
			}
		}
	}
	JOINT RightUpLeg_virtual
	{
		OFFSET 0.000000 0.000000 0.000000
		CHANNELS 3 Xrotation Yrotation Zrotation
		JOINT RightUpLeg
		{
			OFFSET -11.333700 -6.187798 -0.413800
			CHANNELS 3 Xrotation Yrotation Zrotation
			JOINT RightLeg
			{
				OFFSET -0.430392 -32.302628 3.733000
				CHANNELS 3 Xrotation Yrotation Zrotation
				JOINT RightFoot
				{
					OFFSET 0.430392 -48.264973 -6.423500
					CHANNELS 3 Xrotation Yrotation Zrotation
					JOINT RightToeBase
					{
						OFFSET -4.230900 -16.068199 23.438400
						CHANNELS 3 Xrotation Yrotation Zrotation
						JOINT RightToe_End
						{
							OFFSET -4.510700 0.695400 19.974600
							CHANNELS 3 Xrotation Yrotation Zrotation
							End Site
							{
								OFFSET 0 0 0
							}
						}
					}
				}
			}
		}
	}
	JOINT Spine_virtual
	{
		OFFSET 0.000000 0.000000 0.000000
		CHANNELS 3 Xrotation Yrotation Zrotation
		JOINT Spine
		{
			OFFSET -0.002400 12.777504 0.315300
			CHANNELS 3 Xrotation Yrotation Zrotation
			JOINT Spine1
			{
				OFFSET -0.002067 5.816869 0.032633
				CHANNELS 3 Xrotation Yrotation Zrotation
				JOINT Spine1_split
				{
					OFFSET -0.002067 5.816869 0.032633
					CHANNELS 3 Xrotation Yrotation Zrotation
					JOINT Spine2
					{
						OFFSET -0.002067 5.816869 0.032633
						CHANNELS 3 Xrotation Yrotation Zrotation
						JOINT Neck_virtual
						{
							OFFSET 0.000000 0.000000 0.000000
							CHANNELS 3 Xrotation Yrotation Zrotation
							JOINT Neck
							{
								OFFSET -0.003700 21.199493 -0.826900
								CHANNELS 3 Xrotation Yrotation Zrotation
								JOINT Head
								{
									OFFSET 0.000000 20.442200 4.834800
									CHANNELS 3 Xrotation Yrotation Zrotation
									JOINT HeadTop_End
									{
										OFFSET 0.000000 34.668396 4.968400
										CHANNELS 3 Xrotation Yrotation Zrotation
										End Site
										{
											OFFSET 0 0 0
										}
									}
								}
							}
						}
						JOINT LeftShoulder_virtual
						{
							OFFSET 0.000000 0.000000 0.000000
							CHANNELS 3 Xrotation Yrotation Zrotation
							JOINT LeftShoulder
							{
								OFFSET 3.288150 8.794197 -1.372250
								CHANNELS 3 Xrotation Yrotation Zrotation
								JOINT LeftShoulder_split
								{
									OFFSET 3.288150 8.794197 -1.372250
									CHANNELS 3 Xrotation Yrotation Zrotation
									JOINT LeftArm
									{
										OFFSET 11.953299 -2.279007 -0.146200
										CHANNELS 3 Xrotation Yrotation Zrotation
										JOINT LeftForeArm
										{
											OFFSET 18.448900 0.000000 0.000000
											CHANNELS 3 Xrotation Yrotation Zrotation
											JOINT LeftHand
											{
												OFFSET 29.527798 0.000000 0.000000
												CHANNELS 3 Xrotation Yrotation Zrotation
												End Site
												{
													OFFSET 0 0 0
												}
											}
										}
									}
								}
							}
						}
						JOINT RightShoulder_virtual
						{
							OFFSET 0.000000 0.000000 0.000000
							CHANNELS 3 Xrotation Yrotation Zrotation
							JOINT RightShoulder
							{
								OFFSET -3.249400 8.794197 -1.372250
								CHANNELS 3 Xrotation Yrotation Zrotation
								JOINT RightShoulder_split
								{
									OFFSET -3.249400 8.794197 -1.372250
									CHANNELS 3 Xrotation Yrotation Zrotation
									JOINT RightArm
									{
										OFFSET -11.953299 -2.279007 -0.146200
										CHANNELS 3 Xrotation Yrotation Zrotation
										JOINT RightForeArm
										{
											OFFSET -18.448900 0.000000 0.000000
											CHANNELS 3 Xrotation Yrotation Zrotation
											JOINT RightHand
											{
												OFFSET -29.527802 0.000000 0.000000
												CHANNELS 3 Xrotation Yrotation Zrotation
												End Site
												{
													OFFSET 0 0 0
												}
											}
										}
									}
								}
							}
						}
					}
				}
			}
		}
	}
}
MOTION
Frames: 9
Frame Time: 0.03333333
4.733375 91.190575 -2.965839 0.000000 0.000000 0.000000 22.545305 12.691350 -3.481286 -72.025335 4.672460 -5.839083 69.926937 13.179683 -4.715721 19.259472 -8.296809 14.300752 2.951021 3.771956 -10.342237 0.000000 0.000000 0.000000 21.018905 9.181240 -2.242215 -27.297558 -16.625517 -0.942532 37.934498 4.400029 -0.934281 -30.689717 -11.262055 -4.534662 3.769515 4.105116 -15.279936 0.000000 0.000000 0.000000 22.446901 12.638545 -4.139143 4.830931 -1.657655 -0.628584 1.212509 -0.200823 -1.358533 0.025951 -0.301550 0.069772 0.000000 0.000000 0.000000 2.340560 2.727630 -1.265257 -19.950045 11.577823 3.986715 -19.122358 8.939990 -2.394930 0.000000 0.000000 0.000000 1.698475 1.548911 -1.339318 1.062986 3.147132 -16.179704 1.920487 0.703009 -0.854261 7.501740 4.898539 -44.490872 -6.509870 -64.605188 -11.296067 0.000000 0.000000 0.000000 3.596109 1.674291 -1.616301 -3.736680 3.460915 19.147284 1.348822 -3.130306 0.910108 14.881608 -14.963290 46.072915 -9.356257 69.284264 12.931889 0.000000 0.000000 0.000000 
3.975725 90.442352 0.912964 0.000000 0.000000 0.000000 22.308422 11.783850 -3.212467 -73.278900 8.097186 -5.237234 65.038004 14.916071 -4.231964 14.854292 -8.612676 15.560303 1.786631 3.889786 -9.173544 0.000000 0.000000 0.000000 22.354968 8.300497 -1.813315 -26.332664 -15.623467 -0.391301 38.026508 4.529750 -1.159827 -29.704745 -12.114877 -1.668806 -4.626679 4.969448 -15.167144 0.000000 0.000000 0.000000 23.306801 13.262129 -4.281531 5.116169 -1.423689 -0.877239 1.655958 -0.114870 -1.362500 0.160223 -0.375032 0.122491 0.000000 0.000000 0.000000 2.526812 2.740595 -1.310249 -20.065706 11.470603 4.240872 -19.596906 8.588779 -2.104568 0.000000 0.000000 0.000000 1.713005 1.659648 -1.400815 1.123382 3.295193 -16.094934 1.671727 0.138074 -0.818080 7.318664 5.036063 -44.526031 -6.887455 -64.608829 -11.546033 0.000000 0.000000 0.000000 3.610024 1.704380 -1.643276 -3.874441 3.396042 18.932011 1.350084 -1.991459 0.713034 15.248331 -14.548016 46.827719 -10.525250 70.441899 13.899007 0.000000 0.000000 0.000000 
3.008047 89.778778 5.614704 0.000000 0.000000 0.000000 22.701230 10.403098 -2.931405 -75.486178 11.417296 -4.159649 59.338600 15.721895 -2.599395 11.432594 -8.890441 15.124016 3.332483 3.555717 -5.738406 0.000000 0.000000 0.000000 24.020852 8.658567 -2.033350 -22.557659 -14.298501 0.821314 36.035764 4.237132 -1.400919 -31.870021 -12.932226 -1.019230 -5.410574 5.456154 -15.735311 0.000000 0.000000 0.000000 24.238496 13.135152 -4.315684 5.528549 -0.962703 -1.172560 2.114416 0.148130 -1.398168 0.244197 -0.402738 0.131637 0.000000 0.000000 0.000000 2.795879 2.879726 -1.392132 -20.711710 11.171019 4.826203 -20.757206 7.320357 -1.656400 0.000000 0.000000 0.000000 1.664126 1.911730 -1.475652 1.129331 3.482043 -15.991862 1.215026 -0.527220 -0.830013 7.670040 4.822170 -44.849785 -6.905858 -64.604014 -11.367551 0.000000 0.000000 0.000000 3.632781 1.894868 -1.699856 -4.076094 3.335605 18.545123 1.508907 -1.434034 0.656002 16.051655 -14.009702 47.935128 -13.169388 72.047588 16.369392 0.000000 0.000000 0.000000 
2.041446 89.259193 10.702915 0.000000 0.000000 0.000000 23.611313 9.128871 -2.655390 -78.027207 13.463291 -3.460569 53.545036 15.113686 0.016711 10.499789 -9.076558 13.352333 5.106486 3.073015 -0.158790 0.000000 0.000000 0.000000 25.488005 8.825411 -2.486615 -17.800982 -13.134842 1.793234 32.438194 3.805403 -1.639651 -35.351539 -13.424462 -1.563203 0.137765 5.799608 -16.935020 0.000000 0.000000 0.000000 25.312087 12.425085 -4.298243 5.845816 -0.401319 -1.518129 2.432350 0.505126 -1.443804 0.170030 -0.339711 0.094842 0.000000 0.000000 0.000000 3.126014 3.113508 -1.472787 -21.679645 10.719125 5.627688 -22.463365 5.396952 -1.092382 0.000000 0.000000 0.000000 1.551885 2.245463 -1.530852 1.093043 3.695867 -15.916205 0.668189 -1.021163 -0.802889 8.372935 4.337269 -45.395879 -6.599155 -64.533123 -10.780119 0.000000 0.000000 0.000000 3.660582 2.165859 -1.778951 -4.303604 3.203555 17.980082 1.763922 -1.369962 0.962116 17.198189 -13.611493 49.038631 -17.421069 73.991897 20.541306 0.000000 0.000000 0.000000 
1.110691 88.865570 16.071499 0.000000 0.000000 0.000000 24.796761 7.972433 -2.427198 -80.359580 14.519155 -3.147762 47.671227 13.705875 2.886156 10.918373 -9.074279 11.725582 5.076626 2.505106 6.360978 0.000000 0.000000 0.000000 26.412391 8.177136 -2.729018 -13.373742 -12.560027 1.939166 28.736962 4.405782 -1.938394 -36.929258 -13.386375 -0.659157 4.779206 6.798425 -18.080559 0.000000 0.000000 0.000000 26.562382 11.700537 -4.217968 5.949588 0.140912 -1.909495 2.557371 0.894094 -1.487342 0.108191 -0.148233 0.050224 0.000000 0.000000 0.000000 3.453083 3.389898 -1.530995 -22.649397 10.124810 6.480462 -24.441127 3.131678 -0.470580 0.000000 0.000000 0.000000 1.401257 2.596505 -1.555990 1.028980 3.949574 -15.974907 0.275827 -1.303670 -0.664524 9.030976 3.750886 -46.058711 -6.045814 -64.273398 -9.882651 0.000000 0.000000 0.000000 3.725079 2.446924 -1.869197 -4.512134 2.966736 17.242657 2.052811 -1.415446 1.662621 18.664919 -13.488799 49.824314 -23.323641 76.049567 26.511733 0.000000 0.000000 0.000000 
0.118198 88.347389 20.888454 0.000000 0.000000 0.000000 25.801443 6.972913 -2.168020 -81.811302 14.981653 -3.082905 42.298422 11.898208 5.307545 11.362429 -8.801972 10.904612 4.068032 1.789376 11.599039 0.000000 0.000000 0.000000 26.695822 6.918197 -2.570806 -10.228896 -12.718989 1.271850 26.012902 6.258288 -2.308290 -34.615334 -12.764173 2.623764 3.927064 8.916786 -18.604363 0.000000 0.000000 0.000000 27.624635 10.923761 -3.995767 5.843258 0.553238 -2.385452 2.461267 1.229881 -1.512297 0.121313 0.072911 -0.006308 0.000000 0.000000 0.000000 3.700054 3.659715 -1.544957 -23.352338 9.549642 7.291071 -26.337361 0.768983 0.213981 0.000000 0.000000 0.000000 1.256686 2.908382 -1.560399 0.944192 4.216003 -16.118147 0.041679 -1.429979 -0.480378 9.252813 3.273616 -46.689336 -5.461262 -63.842386 -8.891435 0.000000 0.000000 0.000000 3.822839 2.700512 -1.953347 -4.693300 2.597183 16.375739 2.082262 -1.193154 2.706552 20.349270 -13.700522 50.087184 -30.302045 77.859293 33.702967 0.000000 0.000000 0.000000 
-0.919083 87.464386 25.816380 0.000000 0.000000 0.000000 26.030725 6.217197 -1.890567 -82.611623 14.997171 -3.086676 39.037659 9.864967 6.723389 11.558916 -8.289060 10.421322 4.332802 1.396694 13.456477 0.000000 0.000000 0.000000 26.461336 4.961646 -2.006064 -8.708784 -13.243169 0.231617 25.152387 8.151302 -2.696803 -29.635494 -11.798950 5.939460 -2.300643 11.646954 -17.835261 0.000000 0.000000 0.000000 28.171619 10.354599 -3.785367 5.632761 0.799292 -2.916686 2.238444 1.495540 -1.530824 0.149650 0.283971 -0.006270 0.000000 0.000000 0.000000 3.806530 3.871424 -1.527123 -23.796845 9.104757 8.017563 -27.735962 -1.679798 1.007643 0.000000 0.000000 0.000000 1.155420 3.120015 -1.589774 0.847136 4.378669 -16.332953 0.217201 -1.402102 -0.234624 8.890079 3.015497 -47.185727 -4.920357 -63.406340 -7.954472 0.000000 0.000000 0.000000 3.892972 2.903003 -2.027825 -4.865094 2.160217 15.506905 1.467435 -0.657559 3.981482 22.009456 -14.140801 49.840136 -36.889558 79.222251 40.612202 0.000000 0.000000 0.000000 
-1.910376 85.943977 30.705109 0.000000 0.000000 0.000000 25.519183 5.367409 -1.574649 -83.123361 14.736470 -2.535919 39.268076 7.627435 6.981423 11.198573 -7.656106 10.392969 5.394284 1.387887 12.566043 0.000000 0.000000 0.000000 26.096087 3.030174 -1.297437 -9.541728 -14.063612 -1.294814 28.181675 9.356622 -3.038296 -23.007468 -10.972186 8.036676 -12.685752 13.753447 -15.287770 0.000000 0.000000 0.000000 28.003729 10.162521 -3.661933 5.536729 0.846086 -3.385890 2.075458 1.671967 -1.561328 0.165812 0.384751 0.036067 0.000000 0.000000 0.000000 3.731771 4.005995 -1.512478 -23.938876 8.879474 8.652166 -28.583303 -3.950595 1.881928 0.000000 0.000000 0.000000 1.112417 3.209589 -1.673363 0.768621 4.346553 -16.525166 0.556261 -1.113901 -0.284520 8.097664 3.016915 -47.476706 -4.445231 -63.251568 -7.170104 0.000000 0.000000 0.000000 3.915312 3.057025 -2.072672 -5.037719 1.751608 14.843649 0.541383 -0.054034 5.411891 23.386371 -14.646685 49.189783 -41.093099 80.123884 45.174304 0.000000 0.000000 0.000000 
-2.842632 83.786453 35.296673 0.000000 0.000000 0.000000 24.522034 4.040166 -1.015486 -82.844990 14.509135 -1.474080 42.682863 5.524260 6.383084 9.279950 -7.116286 11.509182 6.287752 1.409808 10.602891 0.000000 0.000000 0.000000 25.229177 1.832266 -0.723879 -14.620348 -15.065685 -4.263656 37.219026 10.420838 -3.275033 -13.205448 -10.030062 10.478607 -22.628179 13.918069 -11.754348 0.000000 0.000000 0.000000 26.932647 10.430899 -3.592275 5.762358 0.648721 -3.710184 2.018086 1.733868 -1.612630 0.143977 0.315343 0.015526 0.000000 0.000000 0.000000 3.492188 4.048070 -1.510069 -23.820551 8.950145 9.098776 -28.994833 -5.822791 2.694727 0.000000 0.000000 0.000000 1.063175 3.188214 -1.786739 0.691285 4.065513 -16.534187 0.854548 -0.714226 -0.634490 7.266706 3.318448 -47.531027 -4.023882 -63.625726 -6.559920 0.000000 0.000000 0.000000 3.864847 3.154146 -2.078094 -5.235553 1.458053 14.450968 -0.071327 0.474311 6.528748 24.137161 -15.091629 48.341012 -41.507729 80.632145 45.892666 0.000000 0.000000 0.000000 
